/* XPM */
static char *_f008c02cfc24fe3f9193321f8c4a9e8WcQIwT9NOhDElDYh[] = {
/* columns rows colors chars-per-pixel */
"64 64 5 1 ",
"  c #571414",
". c #661616",
"X c #942525",
"o c #CC4646",
"O c #E87272",
/* pixels */
"................................................................",
"................................................................",
"OOOOOoooooooooooooooooooooo.....OOOOOOOooooooooooooooooooooo....",
"OOoooooooooooooooooooooooooo....OOOOOOoooooooooooooooooooooo....",
"oooooooooooooooooooooooooooo....OOOOoooooooooooooooooooooooo....",
"oooooooooooooooooooooooooooo....OOOooooooooooooooooooooooooo....",
"oooooooooooooooooooooooooooo....Oooooooooooooooooooooooooooo....",
"oooooooooooooooooooooooooooo....oooooooooooooooooooooooooooo....",
"oooooooooooooooooooooooooooX....oooooooooooooooooooooooooooo....",
"oooooooooooooooooooooooooooX....oooooooooooooooooooooooooooX....",
"ooooooooooooooooooooooooooXX....oooooooooooooooooooooooooooX....",
"ooooooooooooooooooooooooXXXX....ooooooooooooooooooooooooooXX....",
"ooooooooooooooooooooooXXXXXX....oooooooooooooooooooooooXXXXX....",
" ooooooooooooooooXXXXXXXXXXX....ooooooooooooooooXXXXXXXXXXXX....",
".................           ...................           ......",
"..................        ......................................",
"...................    .........................................",
"................................................................",
"oooooooooooo....OOOOOOOOOOoooooooooooooooooo.....OOOOOOOOooooooo",
"oooooooooooo....OOOOOOoooooooooooooooooooooo....OOOOOOOooooooooo",
"oooooooooooo....OOOooooooooooooooooooooooooo....OOoooooooooooooo",
"oooooooooooo....OOoooooooooooooooooooooooooo....Oooooooooooooooo",
"oooooooooooo....OOoooooooooooooooooooooooooo ...oooooooooooooooo",
"oooooooooooX....OooooooooooooooooooooooooooX ...oooooooooooooooo",
"oooooooooooX....oooooooooooooooooooooooooooo ...oooooooooooooooo",
"oooooooooooX....oooooooooooooooooooooooooooo ...oooooooooooooooo",
"oooooooooooX....oooooooooooooooooooooooooooX ...oooooooooooooooo",
"ooooooooooXX ...oooooooooooooooooooooooooooX ...oooooooooooooooo",
"oooooooXXXXX ...ooooooooooooooooooooooooooXX....oooooooooooooooo",
"ooooooXXXXXX ...ooooooooooooooooooooooooXXXX.....ooooooooooooooo",
".........    ...................................................",
"................................................................",
"................................................................",
"................................................................",
"OOOOOoooooooooooooooooXXXXXX......OOOOOOoooooooooooooooooXXX....",
"OOoooooooooooooooooooooooXXX.....OOOOOOoooooooooooooooooooXX....",
"OoooooooooooooooooooooooooXX....OOOOOooooooooooooooooooooooX....",
"OooooooooooooooooooooooooooX....OOOOoooooooooooooooooooooooo....",
"oooooooooooooooooooooooooooX....OOOooooooooooooooooooooooooo....",
"oooooooooooooooooooooooooooX....OOoooooooooooooooooooooooooo....",
"oooooooooooooooooooooooooooo....OOoooooooooooooooooooooooooo....",
"oooooooooooooooooooooooooooo....Oooooooooooooooooooooooooooo....",
"oooooooooooooooooooooooooooo....oooooooooooooooooooooooooooo....",
"oooooooooooooooooooooooooooo....oooooooooooooooooooooooooooX....",
"oooooooooooooooooooooXoooooo....ooooooooooooooooooooooooooXX....",
"oooooooooooooooooooXXXXXooo..... oooooooooooooXXXXXXoooooXX ....",
"..................       .............................     .....",
"................................................................",
"................................................................",
".........................................    ...................",
"ooooooooooo.....OOOOOOoooooooooooooooooooooo ...OOOOOOoooooooooo",
"oooooooooooo....OOOOOooooooooooooooooooooooo ...OOOooooooooooooo",
"oooooooooooo....OOoooooooooooooooooooooooooo ...OOoooooooooooooo",
"oooooooooooo....Oooooooooooooooooooooooooooo....OOoooooooooooooo",
"oooooooooooo....OooooooooooooooooooooooooooX....Oooooooooooooooo",
"oooooooooooo....ooooooooooooooooooooooooooXX....Oooooooooooooooo",
"oooooooooooo....ooooooooooooooooooooooooooXX....Oooooooooooooooo",
"oooooooooooo....ooooooooooooooooooooooooooXX....oooooooooooooooo",
"oooooooooooX....ooooooooooooooooooooooooXXXX....oooooooooooooooo",
"oooooooooXXX  ..ooooooooooooooooooooooXXXXXX....oooooooooooooooo",
"oooooooooXXX  ..XXoooooooooooooooooooXXXXXXX....oooooooooooooooo",
"ooooooooXXXX  .. XXXXoooooooooooooXXXXXXXXXX....oooooooooooooooo",
".....         ..................................................",
"................................................................"
};
