/* XPM */
static char *bigger[] = {
/* columns rows colors chars-per-pixel */
"16 12 167 2 ",
"   c #600E0B",
".  c #610E0B",
"X  c #650F0C",
"o  c #660F0C",
"O  c #670F0C",
"+  c #66100C",
"@  c #67120D",
"#  c #69110C",
"$  c #6B110C",
"%  c #6A120D",
"&  c #6B120D",
"*  c #6C120D",
"=  c #6D120D",
"-  c #6D130D",
";  c #6E130D",
":  c #6C130E",
">  c #6D140E",
",  c #6C140F",
"<  c #6D140F",
"1  c #6E140E",
"2  c #6F140E",
"3  c #6F150F",
"4  c #6D160F",
"5  c #6E160F",
"6  c #70140E",
"7  c #70150E",
"8  c #71150E",
"9  c #70160F",
"0  c #71160F",
"q  c #72160E",
"w  c #73170F",
"e  c #6F1610",
"r  c #711610",
"t  c #711710",
"y  c #731710",
"u  c #711810",
"i  c #711811",
"p  c #721811",
"a  c #751810",
"s  c #751811",
"d  c #751911",
"f  c #771911",
"g  c #751912",
"h  c #771A12",
"j  c #791A12",
"k  c #7A1B12",
"l  c #6C2318",
"z  c #6D2318",
"x  c #6E2318",
"c  c #682519",
"v  c #6F2418",
"b  c #6E261A",
"n  c #7B2116",
"m  c #7C2317",
"M  c #732619",
"N  c #742418",
"B  c #752418",
"V  c #742519",
"C  c #752619",
"Z  c #742719",
"A  c #762619",
"S  c #762719",
"D  c #77271A",
"F  c #782619",
"G  c #79271A",
"H  c #75291B",
"J  c #77291B",
"K  c #762B1D",
"L  c #7A281A",
"P  c #7B281A",
"I  c #7B281B",
"U  c #7B291B",
"Y  c #7C281A",
"T  c #7C291B",
"R  c #782B1C",
"E  c #7A2A1C",
"W  c #7D2A1C",
"Q  c #7C2B1C",
"!  c #7D2B1C",
"~  c #7E2A1C",
"^  c #7E2B1C",
"/  c #7F2B1C",
"(  c #7A2C1D",
")  c #7C2C1D",
"_  c #7F2C1C",
"`  c #7E2D1D",
"'  c #7C2E1E",
"]  c #7D2E1E",
"[  c #7E2E1E",
"{  c #7F2E1E",
"}  c #7E2F1F",
"|  c #7E301F",
" . c #7F301F",
".. c #812D1D",
"X. c #812E1E",
"o. c #802F1F",
"O. c #812F1F",
"+. c #852F1E",
"@. c #81301F",
"#. c #82301F",
"$. c #83311F",
"%. c #86311F",
"&. c #803020",
"*. c #833120",
"=. c #833220",
"-. c #833321",
";. c #873120",
":. c #843220",
">. c #853220",
",. c #843221",
"<. c #843321",
"1. c #853321",
"2. c #863220",
"3. c #873220",
"4. c #873320",
"5. c #833522",
"6. c #873421",
"7. c #863422",
"8. c #873422",
"9. c #873522",
"0. c #883321",
"q. c #893321",
"w. c #893421",
"e. c #883522",
"r. c #883623",
"t. c #8B3723",
"y. c #893724",
"u. c #893925",
"i. c #8A3825",
"p. c #8B3925",
"a. c #8B3A26",
"s. c #8A3B26",
"d. c #8B3B26",
"f. c #8C3924",
"g. c #8D3924",
"h. c #8C3925",
"j. c #8D3925",
"k. c #8E3A25",
"l. c #8E3B25",
"z. c #8E3B26",
"x. c #8D3C26",
"c. c #8E3C26",
"v. c #8F3D27",
"b. c #903B26",
"n. c #903D27",
"m. c #923C27",
"M. c #923E27",
"N. c #963E28",
"B. c #93412A",
"V. c #95492E",
"C. c #8F4C30",
"Z. c #905233",
"A. c #995234",
"S. c #9B5636",
"D. c #9B5938",
"F. c #A05434",
"G. c #A15736",
"H. c #A55938",
"J. c #A55B39",
"K. c #A35C39",
"L. c #A6613D",
"P. c #A9623D",
"I. c #AC663F",
"U. c #AA6640",
"Y. c #AC6640",
"T. c #AF6841",
"R. c #AD6942",
/* pixels */
"9.9.9.Y.q.9.q.q.9.....@.9.9.q.9.",
"& & & G.& & & & &             & ",
"] @.9.L.| ] ] ] J x x x x J ] ] ",
"9.u.u.u.u.u.q.9.Z.] ] B ] ] S.u.",
"& g g g g t & & C.e & & 6 + V.n ",
"] ] ] G ] G ] B D.B B B J ] S.| ",
"u.u.b.T.N.b.u.b.u.9.9.9.9.q.u.u.",
"t t g H.k k g g g & & & 6 & 6 6 ",
"] ] ..P.@.@.......G B B ] ] ] ] ",
"u.u.u.u.u.u.u.u.R.@...9.q.b.Y.B.",
"6 & 6 6 6 & 6 g H.& & + & 6 G.n ",
"] ] ] @.@.@.9.q.Y.] B x B G H.9."
};
