/* XPM */
static char *bricks_64[] = {
/* columns rows colors chars-per-pixel */
"64 48 88 1 ",
"  c #450808",
". c #4C0B0A",
"X c #540B0A",
"o c #5C0D0B",
"O c #5D100C",
"+ c #630E0B",
"@ c #680F0B",
"# c #65110D",
"$ c #6C130D",
"% c #72160F",
"& c #76180F",
"* c #661610",
"= c #6C1610",
"- c #6B1811",
"; c #721710",
": c #751911",
"> c #7B1C13",
", c #772017",
"< c #7D2016",
"1 c #7D2419",
"2 c #7D3221",
"3 c #7E3925",
"4 c #7E5333",
"5 c #821F15",
"6 c #822116",
"7 c #832519",
"8 c #8A271B",
"9 c #84281B",
"0 c #8B281C",
"q c #833421",
"w c #843C26",
"e c #8B3A24",
"r c #873E28",
"t c #8A3F28",
"y c #913E27",
"u c #943E28",
"i c #8C412A",
"p c #8F492E",
"a c #94432B",
"s c #95492F",
"d c #994B2F",
"f c #944C30",
"g c #9B4D30",
"h c #815534",
"j c #8D5636",
"k c #865937",
"l c #8C5837",
"z c #875938",
"x c #8C5C39",
"c c #945335",
"v c #9B5133",
"b c #905837",
"n c #945C39",
"m c #9B5E3B",
"M c #A05737",
"N c #A35D3B",
"B c #8F633D",
"V c #95633E",
"C c #9C623D",
"Z c #A2633E",
"A c #AA633F",
"S c #9E6740",
"D c #9D6A42",
"F c #A56640",
"G c #AC6741",
"H c #A46B43",
"J c #AA6C44",
"K c #B26C44",
"L c #A47247",
"P c #AC7147",
"I c #AC7549",
"U c #AD7A4C",
"Y c #B47147",
"T c #B37449",
"R c #B27C4D",
"E c #B97E4F",
"W c #B77F50",
"Q c #BA7F50",
"! c #B68150",
"~ c #BC8452",
"^ c #BE8955",
"/ c #C18452",
"( c #C28B56",
") c #C58E58",
"_ c #C88F5A",
"` c #C69059",
"' c #CB945C",
"] c #CE985E",
/* pixels */
"))))^^^^(///)]'/~~~~~~~~/~//~~~~~~~~WWWRRTRRRR~~~~((^)))))))))))",
":>:>>>>>:>>>v'G>>5>>5>>$>>%>%>5:>::>>>>>&:>5>>:>:::>6>>:>:::>>>>",
"$:;%$$$$%%%%g]A>>::%:>%%>%%>:>:>%:$:$%$+#$$:%$$$+#$$>%%$%%%%%%%#",
"%%$$+#%$$%$%d'A%%::$%%$$%%%:;::;:-:%+#++++@%+$$$o@+$%$$#%%%$$%%$",
"$$:$$+%$$$$%v]A%+%$$$%%%%$$%%%$$$$$%+#o+Xo$%$++o+Xo@%+$+$%$+%%%$",
"%%&$$+$%$$$%v]M%$%%+$%%$@$%$$$$$$$%$$#ooo++%+++Xoo++%++++++$$$%$",
"$$+$$+$$$%%>g]M:$%@+$%@$@@$+$++$$:#$$#Xo$+@$$o+Xo@+$$$o++++++$$$",
"$++@%+%$$%>%g'M%@$$++$+@+@$$+@++$>$++oo+@+oo$o@o+$+oo$o+$o@$$%$$",
"%$+$%+:%%:%%g'M$@%@++$$$++$$+$+$-%+o+Xoo+Xoo$o+oX+Xoo$o+%$$+%$%%",
"%$$@$+%%$>%%g'v%+$$+$$$$+@@@$$$$$$+oXooXo+X++o++oo+X$+oo+$$@%$$$",
"++#+#$$$#$#-f'c*-*-**-#####-##O+ooXO..X Xoo+ooXoXX+o++oo++++$++#",
"~~~~^~~^~(((`')((^^^^~~~~~~!!RUUWRUUULHDDDCVCCVHPIIUUUURRRUU!!!!",
")))`''''''''''''''''`'`)))((^(~~~RUUZFFZCZZmmCmCZZFFJGAGKK~~((()",
">->,:,111111:11:111,1,7,1>,6>>:>$2Dx%:$$$-;;:->::$$$:;$>$%HRa-;>",
"$Oo$-->::>$::>>-:5>::>:$>>#;%%$%#qDl$>::>#;$o+#+%:>>+;$o#>J~a$$%",
"$$$$$-::::::::-;>>>:-:-;$;##$##$$2Lj;:$-;#;##$o$%$-$#$+#$$J(i#$%",
":;$-$#:::$::::-::$:-::$-o::$$$$$$3Ib$$$$:$##>-$%;$$;##o$::J(a#%:",
">:$#;#:>-#:::->#;::$:::$-;$$#%$-%tUV#$$;::#-####;%->$$$%%;J)a$>>",
"::#->-;::#:::#>:>:::>:;:$#$:$$$;%wRD-;>$;#$;##;$;>$-+%$o$%J)a%>:",
"::##:::$:::::::;>>5>>$$;$:#:;$++$r!C$>>#$#:$::%:::$$#$o#%#K)a:::",
">$#:>->::>::>>:$>>>>$;:>;>::;$#o:i!C$;$;$::$;;$%%$>$;%o%$$G)a$$$",
":$$:>:$::::#::$#:>:;:$-$::$:$$$:,a~C%%:%:$$:;;::;:;:#$$#$>K_s%$#",
">:::::;::$:$$$$;;:;$$::;:::>$$$>>f~b$$##$-#-##$###+#-#O+o$F)a$::",
"bbmmmmCCmmmbbjjjjjjjjjjjjjjjjjjllD~UVbbxxkh4hkxxBVVDHLIUUR~)Hbbb",
"]]]]]]]]]]]]'')'''''''''''''')''''')(~~!RUURURR~~~())''''''''']]",
"119999919799a'T00800887079907770777>::,:>:66$:>>>>>:7>,>77::7111",
";>:%:>:::%>:u]Y>655>6>>>>;>>>;:>>>;%$#:-::>;$;:%;:$$:;::>:$%:;;>",
"$:>$:;:::%>>u]K565>>>:>::::;>>;>$>$;$$%;$%$$$%%%::$$%$$;;$$::>:>",
"%%:$:$$>;%>:u'K55>:>>>>>>$::>;>:>>;:#$:$%;%$$;$%:%#:;$;;:$;:$::>",
"%%$$;$$:::>:u]K>>:>:>>>>>%:>>>%:>$>>#%;;%%$%%%%;#:$:%:%:;%%;%$#>",
">:%:>:$:%:>:a]Y5%>:>>>>>>:>:>>$>:->>$;%%$$#$:$#+:%%$$%$$$$::;$$:",
":$$:>:;:::%:u]K>>>:>::::$;;$>>;>:>>;%;#$$$$$:$$#%$%$#$$#;$>$$$%$",
">::>:>::>>::a'J>>>::>::::>::>>:>>>>:$:$$+;$$:##$:%%%$$+%$$:$$;:;",
":%%$$:%;%%%%a'G>>>>:>>:>:%>>>:>>>5:;$>%$$:%$$$$$%$$$%$$:%$%$%%%$",
"$$$+$$$@$$@%a'G>,>>:>>>;>%:>>%>:>:;>-$++$#++o+oo++++$+$$$@+$$@$$",
"JJPJPPJPPPPJE'(TTTTTTTTTYPPJJHHFFCCCCCbxljxbCCSSHHHHHHJJJHHCHJJJ",
"''''''']'''''''''''''''''''''''''))(//~~ERR~~~(()``'''''''''''''",
"66>66>>>>6>,>>7716>>7,>66>>656577K)v>:;:::;:%>>:>>>666666,/]a6>>",
":>>>%>%%%>>>:;%>:::>>>%>>$:>:%%>6K)v:$+#%##+$%$$>$%,666,>>/'a>>%",
":>>%$:%>:>>::::>>>:;>:;%:$>$::%>>K_v%++$$$+$$#$$%>%:,6>%>>/'a:>:",
"&%>:$$$%::$%%>::>:>$>%%%::>$%%$>>Y_v$$$#$$$#$#$$%%%$:>:%>>/'a$>>",
":$&:$$$%%%%%$>%%$%%$$$$>>%>$$>:%>Y_v$:$$$$#$$#o$%#$%$&%%>>/'u&%>",
"%$$$+$+$$$$%+:%$%:$@@$@$:$%>$>;:>T_v%%$$$$$$$$$X$$$%@%$%&>/'a>$$",
"%$#$+%%$%$+$+:%$%%%$$%+$%$%%:>>&>Y)v;%%$$#%$$+oo$+$+$$$$%&/'u>%$",
"$%$%+%;$$$$$$>:%$%%%$%$:>:>:>>>:>T)s;:$$o#$$o+$o$o%$$$$@%&~'u%%+",
"$#$%+%$$$$%>$>>%$%::$%$%::%>>%>:>T_p%$$$##o#o$$o$o$+++%+%&/'e%++",
"$@$$%@$$$@+$$%%$;$%$:::%%$$%:$>>>T)f$$#++oooooo#+o$+$+$@@%W'q$@@",
"TIIIIIIIIURRRRRR!~~~~~~~~EW~~~~!~('~RULLDSVxxbVVSDHHHHJJPP)'!RRR"
};
