/* XPM */
static char *bricks_32[] = {
/* columns rows colors chars-per-pixel */
"32 24 69 1 ",
"  c #5C0C0A",
". c #640F0B",
"X c #680F0B",
"o c #65110D",
"O c #6C130D",
"+ c #72160F",
"@ c #74180F",
"# c #6E1610",
"$ c #721710",
"% c #751911",
"& c #7A1B12",
"* c #732217",
"= c #7C2A1B",
"- c #753522",
"; c #7C3623",
": c #763925",
"> c #7C3A25",
", c #7F3E29",
"< c #7B412A",
"1 c #832115",
"2 c #842D1D",
"3 c #803623",
"4 c #893622",
"5 c #853B26",
"6 c #8A3C26",
"7 c #863E28",
"8 c #8B3F28",
"9 c #913E27",
"0 c #903E28",
"q c #85442B",
"w c #8B432B",
"e c #8D492F",
"r c #92452C",
"t c #99462D",
"y c #94492E",
"u c #99492E",
"i c #8F4D31",
"p c #944D31",
"a c #9A4E31",
"s c #945133",
"d c #9D5234",
"f c #9F5938",
"g c #A05536",
"h c #A35837",
"j c #A15738",
"k c #A45B39",
"l c #A95D3B",
"z c #96633E",
"x c #9F603C",
"c c #A7603C",
"v c #A9613D",
"b c #9E6B42",
"n c #AC6741",
"m c #A16F45",
"M c #AB6C44",
"N c #B26D44",
"B c #A97347",
"V c #AE774A",
"C c #B27147",
"Z c #B67448",
"A c #B47B4C",
"S c #BA7B4D",
"D c #BB7F50",
"F c #BD8151",
"G c #C08351",
"H c #C68B56",
"J c #C58C58",
"K c #C88D58",
"L c #CA935B",
/* pixels */
"ddddddGndddadaaaaaaaypaaddddgdgd",
"+OOOO+C9+++O++%%%$OXoOOOXO+O+O+O",
"OOXOOOZ6OOO+OOOOOOo  OX  XOXOo+O",
"OXOOO%C6OXOXXOXX$oo oXX XXoXXXOO",
"+OO+++N4OXOOXOOOOX    XX  X OOO+",
"eipppsFxsspippeqqq<:>>>>,qwqwwee",
"ddfkkkkkkkkkjgdasm85566666888Akd",
"OOO%%%%%&%%#%oOO*z$#OOooO$OXOA=O",
"%OO%O%%$$$%##OOO=bOO$oOO+$oO$S=%",
"%o%%#%%%&&%#O$OO=V$%O+O$%OOoOS2%",
"%#%%%$%O&%$%%%OO2B+$O+$$$$OOOS2O",
"556655;;;;;;55;3eV>;---:>>qqwFw5",
"kcccccFNllllklkkkkddpayaddkkkkkk",
"%%%%%&Nt1&&&%&&&%OO$$++$%O$#%O%%",
"+OO$$&Nt&%&&%&&%&%O$+O+++O+$+$+%",
"%$%$%%Nt&&&&$%&%%&OOOO+oO+OOO%O+",
"%$$$%$Nr&%&%%&&&&%$OOOOO++OOO+O+",
"8ww8wwScyryrrrrw865;;;;>558w8558",
"kkkkkkklkkkkkkkkNDaaypaddhkkkLck",
"%&%$%&%%&%&%%%%%tCOoOoOO@%1&&K2&",
"+%OO++++%+++%++$tCOOOOOO+O@+&K2%",
"+OOOOOOO+OOX++%%tC+OOOO OOOO%H2O",
"OOOOO++%O+O+&%%&uM+OXoXXXOXO+H2O",
"wwwwwwryypppyypanAwq>-->>778wKsw"
};
