/* XPM */
static char *result[] = {
/* columns rows colors chars-per-pixel */
"32 32 6 1 ",
"  c black",
". c #225D91",
"X c #2F7CB3",
"o c #368BC5",
"O c #3DA0D8",
"+ c #69C9ED",
/* pixels */
"XXXXXXXXXXXXXXXXXXXXXXXXXXXXXXXX",
"XXXXXXXXXXXXXXXXXX..XXXXXXXXoooX",
"ooXXXXXXXXXXX.........XXXXXXoOOo",
"OooXXXXXXXXOoooooooooooXXXXXoO+o",
"+OoXXXXXXoooooooooooooooXXXXXooO",
"OooXXXXXooooo.........ooXXXXXXoo",
"ooXXXXXooOo...........ooXXXXXXXX",
"XXXXXXXooo.............ooXXXXXXX",
"XXXXXXXoo..............ooXXXXXXX",
"XXXXXXXoo.............XooXXXXXXX",
"XXooooX     ....  ..      XXXXXX",
"Xooooo      ...   ..      X....X",
"XooXXo  oXXX..    .XXXXo  ......",
"..XXXX  OoXXXX..  XXXXXo  ......",
"...XXX  O+ooXXXX  XXXXoo  ......",
"...XXX  ++oXXXXX  XXO     ......",
"....XX  ooXXXXXX  XXX     ......",
"....XX  XXXXXXXX  XXXX..  ......",
"....XX  XXXXXXXX  XXXXX.  ......",
"...XXX  ooX....X  XoXXX.  ......",
"...XXX      ....  Xo      ......",
"..XXXoo     ....  XX      ......",
"XXXXXoO...........XXooXXX.......",
"XXXX.o+...........XXXooXXX.....X",
"XXXXoo+............XXooooXXXXXoo",
"XXXXoo+............XXoOOoooooooX",
"XXXXXoOO...........XXo++OOOooXXX",
"XXXXXooo...........Xoo++OoooXXXX",
"ooXXXXoo...........oooOoooXXXXXX",
"o+ooXXXoooo...oOOOOoooooXXXXXXXX",
"o++oXXXXooooooooooooXooXXXXXXXXX",
"XoooXXXXXXXXXXXXXXXXXXXXXXXXXXXX"
};
