/* XPM */
static char *c6167306954146c2bac55e10807d10b8VOvmqZBAXnJ3kRyo[] = {
/* columns rows colors chars-per-pixel */
"32 32 13 1 ",
"  c black",
". c #D50000",
"X c #0B5999",
"o c #1378BB",
"O c #BA68C8",
"+ c #1689CE",
"@ c #228ACB",
"# c #1B9CE2",
"$ c #55C4F5",
"% c #FF8A80",
"& c #D588E3",
"* c gray76",
"= c white",
/* pixels */
"oooooooooooooooooooooooooooooooo",
"ooooooooooooooooooXXoooooooo+++o",
"++oooooooooooXXXXXXXXXoooooo+##+",
"#++oooooooo#+++++++++++ooooo+#$+",
"$#+oooooo+++++++++++++++ooooo++#",
"#++ooooo+++++XXXXXXXXX++oooooo++",
"++ooooo++#+XXXXXXXXXXX++oooooooo",
"ooooooo+++XXXXXXXXXXXXX++ooooooo",
"oooo**********==****=&&&&&&&oooo",
"ooo**===============&&&&&&&&&ooo",
"oo+*===============&&&...&&&&ooo",
"o++*==== =    =====&&.%%%.&&&XXo",
"o++*===  = == ====&&&. % .&&OXXX",
"XXo*==  ====  ===&&&&.%%%.&OOXXX",
"XXX==  ====  ====&&&&&% %&OOOXXX",
"XXX=  ====  ====&&&&&&&&&OOOOXXX",
"XXX= ===== == =&&&&&       OOXXX",
"XXX=     =    =&&&&&       OOXXX",
"XXX====  =====&&&&&&%%   %%OOXXX",
"XXX====  ====&&&&&&&%%   %%OOXXX",
"XXX==========&&&&&&O%%   %%OOXXX",
"XXo=========&&&&&&OOOOOOOOOOOXXX",
"ooo========&&&&&&OOOOOOOOOOOOXXX",
"oooo=======&&&&&OOOOOOOOOOOOXXXo",
"oooo@@$XXXXXXXXXXXXoo++++ooooo++",
"oooo@@$XXXXXXXXXXXXoo+##+++++++o",
"ooooo@##XXXXXXXXXXXoo+$$###++ooo",
"ooooo@@@XXXXXXXXXXXo++$$#+++oooo",
"++oooo@@XXXXXXXXXXX+++#+++oooooo",
"+$++ooo@@@+XXX+####+++++oooooooo",
"+$$+oooo@@@@@+++++++o++ooooooooo",
"o+++oooooooooooooooooooooooooooo"
};
