/* XPM */
static char *result[] = {
/* columns rows colors chars-per-pixel */
"32 32 7 1 ",
"  c #1378BB",
". c #0B5999",
"X c #1689CE",
"o c #1B9CE2",
"O c #55C4F5",
"+ c #228ACB",
"@ c white",
/* pixels */
"                                ",
"                  ..        XXX ",
"XX           .........      XooX",
"oXX        oXXXXXXXXXXX     XoOX",
"OoX      XXXXXXXXXXXXXXX     XXo",
"oXX     XXXXX.........XX      XX",
"XX     XXoX...........XX        ",
"       XXX.............XX       ",
"       XX..............XX       ",
"       XX............. XX       ",
"  XXXX XX............. XXo      ",
" XXXXXXXX  ........... XXX .... ",
" XX  XXXX   .......    XX.......",
"..     XoX    ....     XX.......",
"...    XoOXX          XXX.......",
"...    XOOX         oXXX........",
"....   XXX           Xo.........",
"....  XX              ..........",
"....                   .........",
"...    +++ ....    X   .........",
"...   ++.........  XX  .........",
"..   ++..........   X   ........",
"     +o...........  XX   .......",
"    .+O...........   XX   ..... ",
"    ++O............  XXXX     XX",
"    ++O............  XooXXXXXXX ",
"     +oo...........  XOOoooXX   ",
"     +++........... XXOOoXXX    ",
"XX    ++...........XXXoXXX      ",
"XOXX   +++X...XooooXXXXX        ",
"XOOX    +++++XXXXXXX XX         ",
" XXX                            "
};
