/* XPM */
static char *_e18d64a5afb4775d406a2c3dcc80853rhwkWYCPkBSpqtCg[] = {
/* columns rows colors chars-per-pixel */
"32 32 8 1 ",
"  c #D50000",
". c #0B5999",
"X c #1378BB",
"o c #1689CE",
"O c #228ACB",
"+ c #1B9CE2",
"@ c #55C4F5",
"# c #FF8A80",
/* pixels */
"XXXXXXXXXXXXXXXXXXXXoXXXoXXXXXXX",
"XXXXXXXXXX##XXXXXXXoooXXoXXooooX",
"ooXXXXXXX####@XXXXXXoXoooXXXo++o",
"+ooXXXXXX###@@XXXXoXoXXXXXooo+@o",
"@+oXXXXX####@XXXXXXXXXoXXXooXoo+",
"+ooXXXXX###@@XXXXXXXXooXXXoooXoo",
"ooXXXXXX###@XXXXXXXXXXooooooXXXX",
"XXXXXXX###XX        XooXXoooXXXX",
"XXXXXX@###X          XXooXooXXXX",
"XXXXX@@###X          XXXoXoXXXXX",
"XXoo@@###XX          XXXXXXXXXXX",
"Xo++@@###XX          XXoXoX....X",
"Xoo+@@###XX          Xooo.......",
"..X++@###XX          Xooo.......",
"...X+@###++          Xooo.......",
"...X++###@+          @@oo.......",
"....X+###++X        @@Xoo.......",
"....XX####+XXXXXXXX@@XXoo.......",
"....XX####++++XXXooooooo........",
"...XXX######+++XXXXXXXXXo.......",
"...XXX################XX........",
"..XXXXX################X........",
"XXXXXX@X################X.......",
"XXXXX++@@################X.....X",
"XXXXOX++@@###############XXXXXoo",
"XXXXOO@++@###########o####oooooX",
"XXXXXoo++@@#########Xo@###+@oXXX",
"XXXXXOOo.++@########oo@####@XXXX",
"ooXXXXOooo++@@@@@@@oo++o###@@XXX",
"o@ooXXXOOooo++@@@@@@++oo####@XXX",
"o@@oXXXXOOOoooo++++++oooo###@XXX",
"XoooXXXXXXXXXXoXoo++XXXXo###@XXX"
};
