/* XPM */
static char *_5a1a316da444813c326cd649770ff64NIrXzHKXxtXmkTOU[] = {
/* columns rows colors chars-per-pixel */
"32 32 9 1 ",
"  c black",
". c #D50000",
"X c #0B5999",
"o c #1378BB",
"O c #1689CE",
"+ c #228ACB",
"@ c #1B9CE2",
"# c #55C4F5",
"$ c #FF8A80",
/* pixels */
"oooooooooooooooooooooooooooooooo",
"oooooooooo##ooooooooooooooooOOOo",
"OOooooooo##ooooooOOOooooooooO@@O",
"@OOoooooo#OO........Ooooooo#O@#O",
"#@Oooooo##O..........ooooooo#OO@",
"@OOooooo#OO..$$$$$$..ooooooo###O",
"OOoooooo#oo..$$$$$$..ooOoooooo#o",
"oooooooo##o..  $$  ..ooooooooooo",
"ooooooooooo$$  $$  $$ooooooooooo",
"ooooooooooo$$$$$$$$$$oooooOOOooo",
"ooOOOOooooo$$$ $$ $$$ooOOOOOOOoo",
"oOOOOoooOoo$$$    $$$ooooOOOOOOo",
"oOOoooO@@ooo$$$$$$$$#ooooOOOOOoO",
"XXoooo@ooooooOo$$oooooooooOOOOoo",
"XXXooooooooooooooooooooooooOOOoo",
"XXXoooooooo$$oooooo$$ooooooooooX",
"XXXooooooO$$$$oooo$$$$ooooooooXX",
"XXXoooooOO$$$oooooo$$$ooooooooXX",
"XXXoooooO$$$oooooo@o$$$ooooooXXX",
"XXoooooOO$$$#ooooo@@$$$ooooooXXX",
"XXoooooO$$$##oooooo@@$$$oooooXXX",
"XXooooOO$$$#oooooooo@$$$oooooXXX",
"ooooooo$$$##oooooooo@@$$$ooooooX",
"oooooo$$$$oooooooooO@@$$$$#OooXo",
"oo#ooo$$$oooo@oooooOOOo$$$###oOO",
"oo##o$$$$#oo@@oooooooOO$$$$#OOOo",
"ooo#o$$$##o@ooooooooooOO$$$#Oooo",
"ooooo$$$#@@@oooooooooOOO$$$#oooo",
"OOoooo###@@oooooooooO@@#####OOoo",
"O#OOo##@@@oooooooo@oOO@@@@@@@@oo",
"O##Oo@@@@oo+oooOoOOOoooooooooooo",
"oOOOoooooooooooooooooooooooooooo"
};
