/* XPM */
static char *_74d5192e1d64dda87058469160f5f6eAHLH4Rd91oSz2ACR[] = {
/* columns rows colors chars-per-pixel */
"32 32 10 1 ",
"  c black",
". c #D50000",
"X c #0B5999",
"o c #1378BB",
"O c #1689CE",
"+ c #228ACB",
"@ c #00BCD4",
"# c #1B9CE2",
"$ c #55C4F5",
"% c #FF8A80",
/* pixels */
"oooooooooooooooooooooooooooooooo",
"oooooooooo$$ooooooooooooooooOOOo",
"OOooooooo$$ooooooOOOooooooooO##O",
"#OOoooooo$OO........Ooooooo$O#$O",
"$#Oooooo$$O..........ooooooo$OO#",
"#OOooooo$OO..%%%%%%..ooooooo$$$O",
"OOoooooo$oo..%%%%%%..ooOoooooo$o",
"oooooooo$$o..  %% @..ooooooooooo",
"ooooooooooo%% @%%  %%ooooooooooo",
"ooooooooooo%%%%%%%%%%ooooooooooo",
"ooOOOOooooo%%% %% %%%ooOO#oOoooo",
"oOOOOoooOoo%%%    %%%ooOOOOOOOOo",
"oOOoooO#oooo%%%%%%%%$$oOoooXXXOO",
"XXoooo##%%%ooOoooooOo%%%OoooXXXX",
"XXXoo##%%%%OoooooooOO%%%%OooXXXX",
"XXXo##%%%%%$oOoooooOO%%%%%OooXXX",
"XXXX#%%%%%$$ooooooo$##%%%%%$$XXX",
"XXXX#%%%%oooooooooo$$##%%%%O$XXX",
"XXXX#%%%ooooooooooo$$$##%%%O$$XX",
"XXXo#%%%ooooooooooooo$$X%%%Oo$XX",
"XXXo#%%%oooooooooooOoooX%%%Oo$XX",
"XXoo#%%%oooOooooooooooOO%%%Oo$XX",
"oooo#%%%oooOooooooooooOo%%%Oo$XX",
"oooo#%%%%oooooOooooooOO%%%%O#$Xo",
"oo$o#%%%%##oooOooooooOO%%%%##oOO",
"oo$$##%%%%####ooooOooO%%%%##oOOo",
"ooo$$##%%%%%%##ooOO%%%%%%###oooo",
"oooo$o##%%%%%%##O#%%%%%%####oooo",
"OOooo$+###%%%%ooo#%%%%#####ooooo",
"O$OOo$$$+##oooooo########ooooooo",
"O$$Ooooo+++++OOOOOOOoooooooooooo",
"oOOOoooooooooooooooooooooooooooo"
};
