/* XPM */
static char *result[] = {
/* columns rows colors chars-per-pixel */
"32 32 9 1 ",
"  c black",
". c #D50000",
"X c #0B5999",
"o c #1378BB",
"O c #1689CE",
"+ c #228ACB",
"@ c #1B9CE2",
"# c #55C4F5",
"$ c #FF8A80",
/* pixels */
"oooooooooooooooooooooooooooooooo",
"ooooooooooooooooooooooooooooOOOo",
"OOooooooOOooooooooooooooooooO@@O",
"@OOooooOOOOoooooooooooooooooO@#O",
"#@OooooOOOOOoooooooooooooooooOO@",
"@OOoooooOOOOooooo$$$$$$oooooooOO",
"OOooooooOOOoooooo$$$$$$$oooooooo",
"ooooooooooooooo$$$$ooooooooooooo",
"ooooooooooooooo$$$$ooooooooooooo",
"oooooooooooooo$$$$ooooooOooooooo",
"ooOOOOOooooooo$$$$oooooOO@oooooo",
"oOOOoooooOOooo$$$$$ooo...Ooooooo",
"oOOoooOOOOOO$$$$$$$oo..$$$oooooX",
"XXoooooO@OO$$$$$$$$$o.$$ $oooooX",
"XXXooooXXO$$$$$$$$$$o$$$$$ooooXX",
"XXXoooXXXXXXX$$$$$$$$O$$$ooooXXX",
"XXXXoooOOOOXXXX$$$$$$O@oooooXXXX",
"XXXXooOOOOOOXXXX$$$$$$ooooooXXXX",
"XXXXooOOO#####OXX$$$$$oooooXXXXX",
"XXXooOO+O#@@@##OOO$$$$ooooXXXXXX",
"XXXoOO+O@@@@@@@OOOO$$ooooXXXXXXX",
"XXoOOOO@@@@@@@@@OOOoOoooXXXXXXXX",
"ooOOOO@@@oo##@@@@@OoOOoooXXXXXXX",
"oOOOO@@@oooo##@@@@@@@@OoooXXXXXo",
"oooo@@@oooooo#####@@@@@@@OOooooo",
"ooooo+oo@@@oooooo######OOOOOOooo",
"oooooo@@@@@@@ooooooooO##@@@Ooooo",
"oooo@@@@oooo@@@@ooooooo#@Ooooooo",
"OOo@@@@ooooooooo@@@ooooooooooooo",
"O#O@ooooooooooOoooo@OOOooooooooo",
"O##Ooooooo++oooOOOOooooooooooooo",
"oOOOoooooooooooooooooooooooooooo"
};
