/* XPM */
static char *result[] = {
/* columns rows colors chars-per-pixel */
"32 32 8 1 ",
"  c black",
". c #D50000",
"X c #0B5999",
"o c #1378BB",
"O c #1689CE",
"+ c #1B9CE2",
"@ c #55C4F5",
"# c #FF8A80",
/* pixels */
"ooooooooooooooooooooOOoooooooooo",
"oooooooooooooooooooooOoOooooOOOo",
"OOoooOooooooooooooooooOOooOOO++O",
"+OOoOOoooooooooooooooooooooOO+@O",
"@+OoOoOooOooooOooooooooOoooOOOO+",
"+OOOoOOoooooooooooooooooooOoOoOO",
"OOOOOooooooooooooooooooooooooooo",
"ooOOoOoOoooooOoooooooooooooOoooo",
"oOOOOOooOOOOooOoooooooooooOooooo",
"ooO........OOoOOooooooooooOoooOo",
"oo#.........OOooOoooOoooooOooooo",
"oO#####.....oOoooOoooooooooooOoo",
"oO##  ####..OOooooooooooooooOooo",
"oo##  ####..OoOooooooooooooooooo",
"Xo########..OOOOoOooooooooooooXX",
"XX### #####.OOO+OooOoOooooooooXX",
"XX   ######.++OOOoooooOoOOoOoXXX",
"XX##########+OO+o++oOoOOoOoooXXX",
"XXX########++++O###+O+OoOOoOOOXX",
"XXXooO+oo+O+OOO+#####++o+oOoOOXX",
"XXXooooOO+++############O+++++XX",
"XXXooOO++####################+OX",
"XXooOo+O###################OOooX",
"Xooooo++Oo##############@@@@+ooo",
"oooooo+O+++@@@@@@@@@@@@@@++O+ooO",
"ooooooOooo++++++++++++++++OoOOoo",
"ooooooO+O+O+O+++++OOOOOOOOOOOOOo",
"ooooooo+O++O+++OOOO++++oo+OOOOoo",
"OOooooooOOOo+++@+++OOOOOOOOOOooo",
"O@OOoooOOOoo+O++++OOO+OO+OOooooo",
"O@@OoooOOoOO+++OOOOOOO++oooooooo",
"oOOOooooOOOOOOOOOOOOoooooooooooo"
};
