/* XPM */
static char *result[] = {
/* columns rows colors chars-per-pixel */
"32 32 9 1 ",
"  c black",
". c #D50000",
"X c #0B5999",
"o c #1378BB",
"O c #1689CE",
"+ c #228ACB",
"@ c #1B9CE2",
"# c #55C4F5",
"$ c #EF9A9A",
/* pixels */
"oooooooooooooooooooooooooooooooo",
"ooooooooooooooooooooOOOOooooOOOo",
"OOooooooooooooooooooooOOOOOOO@@O",
"@OOoooooooooOOOooooooooooOOOO@#O",
"#@OooooooOOOOOOOoooooooooooOOOO@",
"@OOoooooOO$$$$$$ooooooooooooooOO",
"OOoooooOO$$$$$$$oooooooooooooooo",
"oooooooOOOXXXX$$$$oooooooooooooo",
"oooooooOOXXXXX$$$$oooooooooooooo",
"oooooooOOXXXXXX$$$$ooooooooooooo",
"ooOOOOoOOXXXXXX$$$$ooooooooooooo",
"oOOOOOOO...XXX$$$$$ooooooooooooo",
"oOOooOO$$$..XX$$$$$$$ooooooooooo",
"ooooooo$ $$.o$$$$$$$$$oooXoooooo",
"ooooooo$$$$$o$$$$$$$$$$ooXXooooo",
"oXXooooO$$$o$$$$$$$$@@@oXXXXoooo",
"XXXXoooOOOoo$$$$$$@@@@@@@XXXXXoo",
"XXXXooOOooo$$$$$$@@@@@@@@@XXXXXo",
"XXXXooooooo$$$$$@@oooo@@@@@XXXXX",
"XXXoooooooo$$$$@@ooooooo@@@@XXXX",
"XXXooooooooo$$oooX@@Ooooo@@@@@@X",
"XXoooo@@@ooooooX@@@@@@ooooo@@@@@",
"ooooo@@X@@@ooo@@@@Oo@@@oooooXXXX",
"ooooo@@XX@@@o@@@XXooo@@@@ooooXXo",
"oooooo@XXX@@@@@XXXXooO@@@@@ooooO",
"oooooooXXXX@@@XXXooooo@@@@@OOooo",
"oooooooooXXXXXXooooooOooo@@OOooo",
"ooooooooooXXXooooooooooooooOoooo",
"OOooooooooooooooooooOO@Ooooooooo",
"O#OOooooooooooo@@@@OOOOOoooooooo",
"O##Ooooooooo+OOOOOOOoOOooooooooo",
"oOOOoooooooooooooooooooooooooooo"
};
