/* XPM */
static char *result[] = {
/* columns rows colors chars-per-pixel */
"32 32 9 1 ",
"  c black",
". c #D50000",
"X c #0B5999",
"o c #1378BB",
"O c #1689CE",
"+ c #228ACB",
"@ c #1B9CE2",
"# c #55C4F5",
"$ c #FF8A80",
/* pixels */
"oooooooooooooooooooooooooooooooo",
"ooooooooooooooooooooooooooooOOOo",
"OOoooooooooooooooOOOooooooooO@@O",
"@OOoooooooOOOOOOOOOOOoooooooO@#O",
"#@OooooooOOOOOOOOOOooooooooooOO@",
"@OOooooooOOOOOOoooooooooooooooOO",
"OOoooooooooooooooooooooOoooooooo",
"oooooooooooooooooooooooooooooooo",
"oooooooooooooooXXXXXXooooooooooo",
"ooooooooooooXXXXXXXXXXoooooooooo",
"ooOOOOoooXXXXXXXXXXXXXoOO@oOoooo",
"oOOOOoooOooXXXOXXXOXXXoOOOOOOOOo",
"oOOoooOOOoooXOO...OO##oOOXXXXXOO",
"XXoooooO@OoooO.$$$.Oo#oOOXXXXXXX",
"XXXooooO@#OOoO$ $ $OO##OOXXXXXXX",
"XXXooooO##OooO$$$$$OOO#OXXXXXXXX",
"XXXXoooOOOooooo$$$oooO##XXXXXXXX",
"XXXXooOOoooo$$ooooo$$oX#XXXXXXXX",
"XXXXooooooo$$$ooooo$$$oXXXXXXXXX",
"XXXoooooooO$$ooooooo$$oXXXXXXXXX",
"XXXoooooooO$$ooooooO$$oXXXXXXXXX",
"XXooooo#ooO$$ooooooo$$OOXXXXXXXX",
"oooooo@##oO$$ooooooo$$OooXXXXXXX",
"ooooOOXX##OO$OOooooo$OOo#oXXXXXo",
"oooo+OOXX##O$$OoooO$$OO##oooooOO",
"oooo++#XX###O$OooOO$OO##OOOOOOOo",
"ooooo+@@XX###OOOOOOO###OOOOOOooo",
"ooooo+++XXXO####OO###OOO@OOOoooo",
"OOoooo++OXXXXXXXXXOOOOOOOOoooooo",
"O#OOooo+++OXXXO@@@@OOOOOoooooooo",
"O##Ooooo+++++OOOOOOOoOOooooooooo",
"oOOOoooooooooooooooooooooooooooo"
};
