/* XPM */
static char *_d304f8309344798caaa4b1543a1819cjB3hUZwn56koU7eV[] = {
/* columns rows colors chars-per-pixel */
"32 32 10 1 ",
"  c black",
". c #D50000",
"X c #0B5999",
"o c #1378BB",
"O c #1689CE",
"+ c #228ACB",
"@ c #00BCD4",
"# c #1B9CE2",
"$ c #55C4F5",
"% c #FF8A80",
/* pixels */
"oooooooooooooooooooooooooooooooo",
"ooooooooooooooooooooooooooooOOOo",
"OOooooooOOooooooooooooooooooO##O",
"#OOooooOOOOoooooooooooooooooO#$O",
"$#OooooOOOOOoooooooooooooooooOO#",
"#OOoooooOOOOooooooooooooooooooOO",
"OOooooooOOOooo%%%%%%%%%%%ooooooo",
"ooooooooooooo%%%%%%%%%%%%%%%oooo",
"ooooooooooooo%%%%%%%%%%%%%%%oooo",
"ooooooooooooo%%%%%%ooooooooooooo",
"ooOOOOOooooo%%%%%%oooooooooooooo",
"oOOOoooooooo%%%%%%ooo........ooo",
"oOOoooOoooo%%%%%%ooo.........%oX",
"XXooooo###o%%%%%%ooo.....%%%%%oX",
"XXXoooo#oo%%%%%%%ooo..%%%%  %%XX",
"XXXo######%%%%%%oooo..%%%% @%%XX",
"XXXXo###%%%%%%%%oooo..%%%%%%%%XX",
"XXX###%%%%%%%%%%oooo.%%%%% %%%XX",
"XX###%%%%%%%%%%%%ooo.%%%%%%   XX",
"X##%%%%%%%%%%%%%%ooo%%%%%%%%%%$X",
"X%%%%%%%%%%%%%%%%%ooo%%%%%%%%$$X",
"%%%%%%%%%%%%%%%%%%%ooo$$$$$$$$#X",
"ooOOOO%%%%%%%%%%%%%%ooooooooo##X",
"oOOO$$$$%%%%%%%%%%%%%#Oooo#####o",
"ooo###o$$$%%%%%%%%%%%%###OOooooo",
"ooooo####$$$$%%%%%%%%%$$$OOOOooo",
"oooooo######$$$%%%%%%%$oo##Ooooo",
"oooo####oo#####$oo%%%%$ooo##oooo",
"OOo####ooooooo####ooo$$oo##ooooo",
"O$O#ooooooooooOoo#########oooooo",
"O$$Ooooooo++oooO#########ooooooo",
"oOOOoooooooooooooooooooooooooooo"
};
