/* XPM */
static char *result[] = {
/* columns rows colors chars-per-pixel */
"32 32 8 1 ",
"  c black",
". c #D50000",
"X c #0B5999",
"o c #1378BB",
"O c #1689CE",
"+ c #1B9CE2",
"@ c #55C4F5",
"# c #FF8A80",
/* pixels */
"oooooooooooooooooooooooooooooooo",
"ooooooooooooooooooooOOOOOoooOOOo",
"OOooooooooooooooooooooOOOOOOO++O",
"+OOoooooooooooooooooooOOOOOOO+@O",
"@+OooooooooooooooooooOOOooOOOOO+",
"+OOoooooooooooooooooooOOoOOOOoOO",
"OOooooo###########oooOoOooOOoooo",
"oooo###############OOoooooOOOooo",
"oooo###############ooOoOOoOooooo",
"ooooooooooooo######OOooooOOoooOo",
"ooOOoooooooooo######ooOooOOOoooo",
"oOO........ooo######oooooOoooOoo",
"oO#.........ooo######ooOooooOooo",
"oo#####.....ooo######ooooooooooo",
"oo##  ####..ooo#######oooooooooo",
"oX##  ####..oooO######oooooooooo",
"XX########..ooOO########oooooXoo",
"XX### #####.o+OO##########oooXXo",
"XX   ######.++O############oooXX",
"XX##########+OO##############XXX",
"XXX########++O#################X",
"XXoooo@@@@++O###################",
"ooooOOOOOOOO##############@@@@XX",
"ooooooooooo#############@@@@+++o",
"oooooooooo############@@@@++++oO",
"oooooooooo#########@@@@@+++OOooo",
"oooooooooo#######@@@@++++++OOOOo",
"oooooooooO####@@@@+++++ooooOOOoo",
"OOooooooOOOO@@@@+++ooO+OooOOOooo",
"O@OOoooOoooooo+++++OOOOOOOOooooo",
"O@@OoooOOo+++++OOOOOOOOOoooooooo",
"oOOOooooOOOOOOOOOOOOoooooooooooo"
};
