/* XPM */
static char *_f7e6f27a0634f2aec9c7a39b9cdd554CWWwGOXOUydEi5it[] = {
/* columns rows colors chars-per-pixel */
"32 32 8 1 ",
"  c #D50000",
". c #0B5999",
"X c #1378BB",
"o c #1689CE",
"O c #228ACB",
"+ c #1B9CE2",
"@ c #55C4F5",
"# c #FF8A80",
/* pixels */
"XXXXXXXXXXXXXXXXXXX++++XXXXXXXXX",
"XXXXXXXXXXXXXXXXX+@@##++XXXXoooX",
"ooXXXXXoooXXXXXXo+@####+XXXXo++o",
"+ooXXXoo@oXXXXXXo+@@###++XXXo+@o",
"@+oXXXoo@@XXXXXXXo+@####+XXXXoo+",
"+ooXXXo@@oXXXXXXXXoo@###++XXXXoo",
"ooXXXXXoooXXXXXXXXXo@###XoXXXXXX",
"XXXXXXXXXXXX        XX###oXXXXXX",
"XXXXXXXXXXX          X###ooXXXXX",
"XXXXXXXXXXX          X###Xo+XXXX",
"XXooooXXXXX          XX###o+XXXX",
"XooooooXXXX          XX###o+...X",
"XooXXooooXX          XX###o+....",
"..XXXXXo+oX          XX###o+....",
"...XXXXo+oX          XX###o+....",
"...XXXXo@oo          XX###o+....",
"....XXXoooXX        Xo+###++....",
"....XXooooXXXXXXXXXXX+####++....",
"....XXXXooXXXXXXXXXXo+####+.....",
"...XXXXOooXXXXXXXXoo######......",
"...XXXoOoo################......",
"..XXXOooo################.......",
"XXXXXOo+################X.......",
"XXXX.O+################XXX.....X",
"XXXXO++###############oooXXXXXoo",
"XXXXo+####o###########@+oooooooX",
"XXXoo+###ooX#########@@oo++ooXXX",
"XXoo@####oXo########@@oo+oooXXXX",
"ooXX@###@@oo@@@@@@@@@++oooXXXXXX",
"o@oo####@@o+++++++++++ooXXXXXXXX",
"o@@o###@@oOOOoooooooXooXXXXXXXXX",
"Xoo@###@XXXXXXXXXXXXXXXXXXXXXXXX"
};
