/* XPM */
static char *result[] = {
/* columns rows colors chars-per-pixel */
"32 32 9 1 ",
"  c black",
". c #D50000",
"X c #0B5999",
"o c #1378BB",
"O c #1689CE",
"+ c #228ACB",
"@ c #1B9CE2",
"# c #55C4F5",
"$ c #FF8A80",
/* pixels */
"oooooooooooooooooooooooooooooooo",
"ooooooooooooooooooooooooooooOOOo",
"OOooooooOOooooooooooooooooooO@@O",
"@OOooooOOOOoooooooooooooooooO@#O",
"#@OooooOOOOOoooooooooooooooooOO@",
"@OOoooooOOOOooooooooooooooooooOO",
"OOooooooOOOoOooooooooooooooooooo",
"oooooooooOoOOOoooooooooooooooooo",
"oooooooooOOoOOoOoooooooooooooooo",
"ooooooooOooOOOOoOOooo........ooo",
"ooOOOOOOooOooOoooooo.........$oo",
"oOOOoooOooOOoOooOOoo.....$$$$$oo",
"oOOoooOooOoOOOoooooo..$$$$  $$oX",
"XXoooooOO@OoOooooooo..$$$$  $$oX",
"XXXooOo@OoOOOOoooooo..$$$$$$$$XX",
"XXXoOO@@O@OOooOoOooo.$$$$$ $$$XX",
"XXXXo@OOoOoOOOoooooo.$$$$$$   XX",
"XXX@OOoOooOOOOOooooo$$$$$$$$$$XX",
"XX@ooOoOOOoOO$$$OoooO$$$$$$$$oXX",
"X@oOOOooooO$$$$$OOoOooOooooooo#X",
"Xo#oooOO$$$$$$$$$$$$ooooOooooo#X",
"oo#$$$$$$$$$$$$$$$$$$$$OO###oooX",
"o####$$$$$$$$$$$$$$$$$$$oooooooo",
"oOOOOO##$$$$$$$$$$$$$$@@@@oooooo",
"oooOOOO##########@@@@@@@OOOOOooo",
"ooooooO@@@@@@@@@@@@OOOOOOOOooooo",
"ooooooOOOOOOOOOOOOOOOOooOooooooo",
"oooo@@ooOoooOOOOOOoOOOOOOooooooo",
"OOo@@@@ooooooOOOOoooOOoooooooooo",
"O#O@ooooooooOOoooooOoooooooooooo",
"O##Ooooooo++oooO@@@ooo@@@ooooooo",
"oOOOoooooooooooooooooooooooooooo"
};
