/* XPM */
static char *ab94963e368045f68a7b2dc336c4a07bskZr7evCG13g9uUN[] = {
/* columns rows colors chars-per-pixel */
"32 32 9 1 ",
"  c black",
". c #D50000",
"X c #0B5999",
"o c #1378BB",
"O c #1689CE",
"+ c #228ACB",
"@ c #1B9CE2",
"# c #55C4F5",
"$ c #FF8A80",
/* pixels */
"oooooooooooooooooooooooooooooooo",
"oooooooooo##ooooooooooooooooOOOo",
"OOooooooo##ooooooOOOooooooooO@@O",
"@OOoooooo#OO........Ooooooo#O@#O",
"#@Oooooo##O..........ooooooo#OO@",
"@OOooooo#OO..$$$$$$..ooooooo###O",
"OOoooooo#oo..$$$$$$..ooOoooooo#o",
"oooooooo##o..  $$  ..ooooooooooo",
"ooooooooooo$$  $$  $$ooooooooooo",
"ooooooooooo$$$$$$$$$$oooooOOOooo",
"ooOOOOooooo$$$ $$ $$$ooOOOOOOOoo",
"oOOOOoooOoo$$$    $$$ooooOOOOOOo",
"oOOoooO@@ooo$$$$$$$$##oooOOOOOoO",
"XXoooo@@$$$ooOoooooOo$$$ooOOOOoo",
"XXXooo@@$$$ooooooooOo$$$oooOOOoo",
"XXXooo@$$$$oooooooooo$$$$ooooooX",
"XXXXoo@$$$oooooooooooo$$$oooooXX",
"XXXoooo$$$oooooooooooo$$$#ooooXX",
"XXXXooo$$$$oooooooooo$$$$#oooXXX",
"XXXooooo$$$$oooooooo$$$$##@ooXXX",
"XXXooooo@$$$$oooooo$$$$##@@@oXXX",
"XXooooOo@@$$$$oooo$$$$##@@@ooXXX",
"ooooooOO@##$$$$oo$$$$@@@@@oooooX",
"oooooooOO@##$$$oo$$$@@ooOOOOooXo",
"oo#oooooOO@##$$oo$$oOOOOooooooOO",
"oo##@ooooOO@@#oooooOOooooooOOOOo",
"ooo##ooooooOO@oooOOOooooooOOOooo",
"oooo#oooooooOOOOOooooOOOOOOOoooo",
"OOooo#+oooooooooo@ooOOOOOOOOOOoo",
"O#OOo##ooo@ooooooo@oOOOOOOOOOooo",
"O##Oooooooo+oooOoOOOoooooooooooo",
"oOOOoooooooooooooooooooooooooooo"
};
