/* XPM */
static char *result[] = {
/* columns rows colors chars-per-pixel */
"32 32 8 1 ",
"  c #D50000",
". c #0B5999",
"X c #1378BB",
"o c #1689CE",
"O c #228ACB",
"+ c #1B9CE2",
"@ c #55C4F5",
"# c #FF8A80",
/* pixels */
"XXXXXXXXXXXXXXXXXXXXXXXXXXXXXXXX",
"XXXXXXXXXXXXXXXXXXXXXXXXXXXXoooX",
"ooXXXXXXXXXXXXXXXXXXXXXXXXXXo++o",
"+ooXXXXXXXXXXXXXXXXXXXXXXXXXo+@o",
"@+oXXXXXXoXX#XXXXXXXXXXXXXXXXoo+",
"+ooXXXXXXXX##XXXXXXXXXXXXXXXXXoo",
"ooXXXXXXXXX##XXXXXXXXXXXXXXXXXXX",
"XXXXXXXXXX###XXXXXXXXXXXXXXXXXXX",
"XXXXXXXXXX##XX   XXXXXXXXXXXXXXX",
"XXXXXXXXX###X     XXXXXXXXXXXXXX",
"XXooooXXo##XX     ooXXXXXXXXXXXX",
"XooooXXoo##XX     oooXXXXoX....X",
"XooXXXXoo##XXX   ooooXXoo.......",
"..XXXXXo+###XXXXooooooXoo.......",
"...XXXXo+@##########ooooo.......",
"...XXX@o@@o##########ooo........",
"....XX@oooXX##########oo........",
"....XX@@X+XXX#####o###oo........",
"....XXX@@++oo#####oo##oo........",
"...XXXXX@@+++ooooooo##Xoo.......",
"...XXXXXX@@++++++oo@##XX........",
"..XXXXXXXX@@@++++@@@##XX........",
"XXXXXXXXXXX.@@@@@@@o#XXoX.......",
"XXXXXXXXX.......XoooooooXX.....X",
"XXXXOXX..........ooooooooXXXXXoo",
"XXXXOO@............XoooooooooooX",
"XXXXXO++...........XXo@@+++ooXXX",
"XXXXXOOO...........Xoo@@+oooXXXX",
"ooXXXXOO...........ooo+oooXXXXXX",
"o@ooXXXOOOo...o++++oooooXXXXXXXX",
"o@@oXXXXOOOOOoooooooXooXXXXXXXXX",
"XoooXXXXXXXXXXXXXXXXXXXXXXXXXXXX"
};
