/* XPM */
static char *result[] = {
/* columns rows colors chars-per-pixel */
"32 32 8 1 ",
"  c #D50000",
". c #0B5999",
"X c #1378BB",
"o c #1689CE",
"O c #228ACB",
"+ c #1B9CE2",
"@ c #55C4F5",
"# c #FF8A80",
/* pixels */
"XXXXXXXXXXXXXXXXXXXXXXXXXXXXXXXX",
"XXXXXXXXXXXXXXXXXXXXXXXXXXXXoooX",
"ooXXXXXoooXXXXXXXXXXXXXXXXXXo++o",
"+ooXXXoo@oXXXXXXXXXooooXXXXXo+@o",
"@+oXXXoo@@XXXXXXXXo#ooooXXXXXoo+",
"+ooXXXo@@oXXXXXXXXX##XooXXXXXXoo",
"ooXXXXXoooXXXXXXXXX##XoXXXXXXXXX",
"XXXXXXXXXXXXXXXXXXX##XXXXXXXXXXX",
"XXXXXXXXXXXXXX   XX###XXXXXXXXXX",
"XXXXXXXXXXXXX     Xo##XXXXXXXXXX",
"XXooooXXXXXXX     Xo##XXXXXXXXXX",
"XooooooXXXXXX     Xo##XXXXX....X",
"XooXXooooXXXXX   XXo##XXX.......",
"..XXXXXo+oXooXXXXXo###XXX.......",
"...XXXXo+ooo##########X++.......",
"...XXXXo@oo##########XX+........",
"....XXXooo##########oo++........",
"....XXoooo#########oo++.........",
"....XXXXoo##o#####ooo+X.........",
"...XXXXOoo##o#####oo++X@........",
"...XXXoOoo##ooooooo+++@@........",
"..XXXOoooo##oooooo+++X@X........",
"XXXXXOoooo##+++o+++@@@@XX.......",
"XXXX.Ooooo#o+++++++@@@oXXX.....X",
"XXXXOOoooooo..+++@@@@@oooXXXXXoo",
"XXXXOO@.o..@@@@@@@@@@o++oooooooX",
"XXXXXO++....@@.....XXo@@+++ooXXX",
"XXXXXOOO...........Xoo@@+oooXXXX",
"ooXXXXOO...........ooo+oooXXXXXX",
"o@ooXXXOOOo...o++++oooooXXXXXXXX",
"o@@oXXXXOOOOOoooooooXooXXXXXXXXX",
"XoooXXXXXXXXXXXXXXXXXXXXXXXXXXXX"
};
