/* XPM */
static char *b55aec0ef3094e678d7f0eb26444d3e9HrOusZc8xjbExzMr[] = {
/* columns rows colors chars-per-pixel */
"32 32 7 1 ",
"  c #0B5999",
". c #1378BB",
"X c #1689CE",
"o c #228ACB",
"O c #1B9CE2",
"+ c #55C4F5",
"@ c white",
/* pixels */
"@...............................",
"@.................  ........XXX.",
"@X...........         ......XOOX",
"@XX........OXXXXXXXXXXX.....XO+X",
"@OX......XXXXXXXXXXXXXXX.....XXO",
"@XX.....XXXXX         XX......XX",
"@X.....XXOX           XX........",
"@......XXX             XX.......",
"@......XX              XX.......",
"@......XX             .XX.......",
"@.XXXX.XX             .XXO......",
"@XXXXXXXX..           .XXX.    .",
"@XX..XXXX...       ....XX       ",
"@ .....XOX....    .....XX       ",
"@  ....XO+XX..........XXX       ",
"@  ....X++X.........OXXX        ",
"@   ...XXX...........XO         ",
"@   ..XX..............          ",
"@   ...................         ",
"@  ....ooo.    ....X...         ",
"@  ...oo         ..XX..         ",
"@ ...oo          ...X...        ",
"@....oO           ..XX...       ",
"@... o+           ...XX...     .",
"@...oo+            ..XXXX.....XX",
"@...oo+            ..XOOXXXXXXX.",
"@....oOO           ..X++OOOXX...",
"@....ooo           .XX++OXXX....",
"@X....oo           XXXOXXX......",
"@+XX...oooX   XOOOOXXXXX........",
"@++X....oooooXXXXXXX.XX.........",
"@XXX............................"
};
