/* XPM */
static char *d0d7c2bcef7c462ae5c486ac83c334fcjFqGokXaJLWkMfDz[] = {
/* columns rows colors chars-per-pixel */
"32 32 10 1 ",
"  c black",
". c #0B5999",
"X c #1378BB",
"o c #A537C4",
"O c #C559E6",
"+ c #1687CE",
"@ c #1B9CE2",
"# c #55C5F5",
"$ c gray51",
"% c gray63",
/* pixels */
"XXXXXXXXXXXXXXXXXXXXXXXXXXXXXXXX",
"XXXXXXXXXXXXXXXXXX..XXXXXXXX+++X",
"++XXXXXXXXXXX.........XXXXXX+@@+",
"@++                          @#+",
"#@ OOOOOOOOOOOOOOOOOOOOOOOOOO +@",
"@+ OOOOOOOOOOOOOOOOOOOOOOOOOo ++",
"++ OOOOOOOOOO OOOO      OOOoo XX",
"XX OOOOOOOOO  OOOO  O   OOOoo XX",
"XX OOOOOOOO  OOOOO OO   OOooo XX",
"XX OOOOOOO  OOOOOOOOO   Ooooo XX",
"XX OOOOOO  OOOOOOOOO    ooooo XX",
"X+ OOOOO  OOOOOOOOO    oooooo .X",
"X+ OOOOO      OOOO    ooooooo ..",
".. OOOOO      OOOO   oooooooo ..",
".. OOOOOOOOO  OOOO   oo ooooo ..",
".. OOOOOOOOO  OOOO   o  ooooo ..",
".. OOOOOOOOO  OOOo      ooooo ..",
".. OOOOOOOOOOOOOooooooooooooo ..",
".. OOOOOOOOOOOooooooooooooooo ..",
"..                            ..",
"..%%%%%%%%%%%%%%%%%%%%%%%%%%%%..",
"..%%%%%%%%%%%%%  %%%%%%%%%%%%%..",
"XX%%%%%%%%%%%%%  %%%%%%%%%%%%%..",
"XXX%%%%%%%%%%%%%%%%%%%%%%%%%%..X",
"XXXX++#.......$$$$.++++++XXXXX++",
"XXXX++#.......$$$$.+++@@+++++++X",
"XXXXX+@%%%%%%$$$$%%$$$$$%@@++XXX",
"XXXXX++%%%%%$$$$%%$$$$$%%+++XXXX",
"++XXXX++...........+++@+++XXXXXX",
"+#++XXX++++...+@@@@+++++XXXXXXXX",
"+##+XXXX++++++++++++X++XXXXXXXXX",
"X+++XXXXXXXXXXXXXXXXXXXXXXXXXXXX"
};
