/* XPM */
static char *result[] = {
/* columns rows colors chars-per-pixel */
"32 32 10 1 ",
"  c black",
". c #0B5999",
"X c #1378BB",
"o c #A537C4",
"O c #C559E6",
"+ c #1687CE",
"@ c #1B9CE2",
"# c #55C5F5",
"$ c gray51",
"% c gray63",
/* pixels */
"XXXXXXXXXXXXXXXXXXXXXXXXXXXXXXXX",
"XXXXXXXXXXXXXXXXXX..XXXXXXXX+++X",
"++XXXXXXXXXXX.........XXXXXX+@@+",
"@++                          @#+",
"#@                            +@",
"@+  OOOOOOOOOOOOOOOOOOOOOOOO  ++",
"++  OOOOOOOOOO OO      OOOOo  XX",
"XX  OOOOOOOOO  OO  O   OOOOo  XX",
"XX  OOOOOOOO  OOO OO   OOOoo  XX",
"XX  OOOOOOO  OOOOOO   OOOooo  XX",
"XX  OOOOOO  OOOOOO   OOOoooo  XX",
"X+  OOOOO  OOOOOO   OO ooooo  .X",
"X+  OOOOO      OO   O  ooooo  ..",
"..  OOOOO      OO      ooooo  ..",
"..  OOOOOOOOO  OOOOooooooooo  ..",
"..  OOOOOOOOO  OOooooooooooo  ..",
"..  OOOOOOOOO  OOooooooooooo  ..",
"..  OOOOOOOOOOOOoooooooooooo  ..",
"..                            ..",
"..                            ..",
"..%%%%%%%%%%%%%%%%%%%%%%%%%%%%..",
"..%%%%%%%%%%%%%  %%%%%%%%%%%%%..",
"XX%%%%%%%%%%%%%  %%%%%%%%%%%%%..",
"XXX%%%%%%%%%%%%%%%%%%%%%%%%%%..X",
"XXXX++#.......$$$$.++++++XXXXX++",
"XXXX++#.......$$$$.+++@@+++++++X",
"XXXXX+@%%%%%%$$$$%%$$$$$%@@++XXX",
"XXXXX++%%%%%$$$$%%$$$$$%%+++XXXX",
"++XXXX++...........+++@+++XXXXXX",
"+#++XXX++++...+@@@@+++++XXXXXXXX",
"+##+XXXX++++++++++++X++XXXXXXXXX",
"X+++XXXXXXXXXXXXXXXXXXXXXXXXXXXX"
};
