/* XPM */
static char *_1de97f726284fd49f4ace45e7640d0cPAvg1FiozJx3WBFx[] = {
/* columns rows colors chars-per-pixel */
"32 32 5 1 ",
"  c #522017",
". c #632D21",
"X c #99322B",
"o c #B33224",
"O c #E04A3D",
/* pixels */
"ooooooooooooXoo ..OOOOOOOooOOooo",
"ooooooooooooooX..OOOOOOooooooooo",
"oooooooooooooXX..OOooooooooooooo",
"ooooooooooooXXX .ooooooooooooooo",
"oooooooooooXXXX .Ooooooooooooooo",
"XXXoooXXXXXXXX  .ooooooooooooooX",
"......    ..   ........  .......",
"................................",
"..OOOOOOOooOOoooooooooooooooXoo ",
".OOOOOOoooooooooooooooooooooooX.",
".OOooooooooooooooooooooooooooXX.",
".oooooooooooooooooooooooooooXXX ",
".OoooooooooooooooooooooooooXXXX ",
".ooooooooooooooXXXXoooXXXXXXXX  ",
"......................    ..   .",
"...    .........................",
"ooooooooooooXoo ..OOOOOOOooOOooo",
"ooooooooooooooX..OOOOOOooooooooo",
"oooooooooooooXX..OOooooooooooooo",
"ooooooooooooXXX .ooooooooooooooo",
"oooooooooooXXXX .Ooooooooooooooo",
"XXXoooXXXXXXXX  .ooooooooooooooX",
"......    ..   ........  .......",
"................................",
"..OOOOOOOooOOoooooooooooooooXoo ",
".OOOOOOoooooooooooooooooooooooX.",
".OOooooooooooooooooooooooooooXX.",
".oooooooooooooooooooooooooooXXX ",
".OoooooooooooooooooooooooooXXXX ",
".ooooooooooooooXXXXoooXXXXXXXX  ",
"......................    ..   .",
"...    ........................."
};
