/* XPM */
static char *_164d9fb61b14e2cc5840ef806eaae8aZcda6AXKMW4vRNIp[] = {
/* columns rows colors chars-per-pixel */
"32 32 8 1 ",
"  c gray20",
". c gray35",
"X c gray48",
"o c #FA9D3A",
"O c #FBB55F",
"+ c #FEC47E",
"@ c gray65",
"# c gray73",
/* pixels */
"OOOOOOo+OOOOOOOOOOOOooOOOOOO++oo",
"OOOOOo++OOOOOOO+++OooOOOOOOO+ooO",
"OOooo++OOOOOOO++OoooOOOOOO++ooOO",
"Ooo+++O    OO+OooOOOOOOOO++ooOOO",
"O+++O   #@   OOOOOOOOOOO++OoOOOO",
"OOOO  ###@@@  OOOOOOOOO++oooOOOO",
"OOO  #####@XX OOOOOOOO++ooOOOOOO",
"OOO #####@XX.  OOOOOooooOOOOOOOO",
"OO  ###@XXX... OOOOooOOOOOO++OOO",
"O  ###@XX.....   OooOOOOOOO+OOOO",
"   #............ ooOOOOOO+++OOOO",
"OOoOOOOOOOOOOOOOoOOOOOOO++OOOOOO",
"ooOOOOOOOOOO++oooOOOOOO++OOOOOOo",
"OOOOOOOOO++++ooOOOOOOoo+OOOOOooo",
"OOOOOOO+++oooOOOOOOoo++OOOOoooOO",
"OOOOOO++OooOOOOOOOOo++OOOooOOOOO",
"OOOOO++oooOOOOOOOOo++OOOOOOOOOOO",
"OOO+++ooOOOOOOOOoo++OOOOOOOOOOOO",
"++++ooOOOOOOOOOoo++OO     OOOOOO",
"+oooOOOOOOOOOoooOOO   ####   O++",
"OoOOOOOOOoooooOOOOO #######@  +O",
"OOOOOOOoo++OOOO     #######@@ OO",
"OOOOOOoo++OOOO  #@@@.#######@  O",
"OOOOOo+++OOOO  ####@@.######@@  ",
"  OOO++OOOOOO #####@X.#######@@ ",
".  OO+OOOOOO  ####@@X.#######@@@",
"..  OOOOOO++ ###@@@XX..#####@@XX",
"...  OOOO++  ###@XXXX..####@@XX.",
"##OOOOOO++   #####..............",
"OOOOOOO++oOOOOOOOOOOOOOoOOOOOO+O",
"OOOOOO++ooOOOOOOOOOOOOooOOOOO++O",
"OOOOOO+oOOOOOOOOOOOOOoOOOOOO++OO"
};
