/* XPM */
static char *f4b7d30a6a6c483da60486b97f3bb96aootGW14u3JMm8hKr[] = {
/* columns rows colors chars-per-pixel */
"8 8 4 1 ",
"  c #591212",
". c #751616",
"X c #993232",
"o c #CC4646",
/* pixels */
" oXXXX..",
" XXXX.. ",
"        ",
"XXXX ooo",
"XX.. oXX",
"X..  XXX",
"        ",
" oooXXXX"
};
